# xmcd
#
# Track frame offsets:
#	150
#	23315
#	41093
#	61799
#	79727
#	95370
#	112458
#	129202
#	146447
#	163735
#	178570
#	194302
#	210323
#	226092
#	244931
#
# Disc length: 3467 seconds
#
# Revision: 0
# Processed by: cddbd v1.5.2PL0 Copyright (c) Steve Scherf et al.
# Submitted via: SynApp - FreeCDDB Version: 2.0
#
DISCID=bd0d890f
DTITLE=Various Artist - Donauland 55 Jahre - 55 Hits CD3
DYEAR=2007
DGENRE=Blues
TTITLE0=Scorpions - Wind Of Change
TTITLE1=Wet Wet Wet - Love Is All Around
TTITLE2=Lighthouse Family - High
TTITLE3=Extreme - More Than Words
TTITLE4=Ace Of Base - All That She Wants
TTITLE5=Shanice - I Love Your Smile
TTITLE6=Masterboy - Is This The Love
TTITLE7=Robert Miles - Children
TTITLE8=Eagle-Eye Cherry - Save Tonight
TTITLE9=The Cardigans - Lovefool
TTITLE10=No Angels - Daylight In Your Eyes
TTITLE11=Ronan Keating - If Tomorrow Never Comes
TTITLE12=Ich and Ich - Du Erinnerst Mich An Liebe
TTITLE13=Joana Zimmer - I Believe
TTITLE14=Christina Stürmer - Ich Lebe
EXTD=
EXTT0=
EXTT1=
EXTT2=
EXTT3=
EXTT4=
EXTT5=
EXTT6=
EXTT7=
EXTT8=
EXTT9=
EXTT10=
EXTT11=
EXTT12=
EXTT13=
EXTT14=
PLAYORDER=
